<?xml version="1.0" standalone="no"?>
<!DOCTYPE svg PUBLIC "-//W3C//DTD SVG 20010904//EN"
 "http://www.w3.org/TR/2001/REC-SVG-20010904/DTD/svg10.dtd">
<svg version="1.0" xmlns="http://www.w3.org/2000/svg"
 width="512.000000pt" height="512.000000pt" viewBox="0 0 512.000000 512.000000"
 preserveAspectRatio="xMidYMid meet">
<metadata>
Created by potrace 1.14, written by Peter Selinger 2001-2017
</metadata>
<g transform="translate(0.000000,512.000000) scale(0.100000,-0.100000)"
fill="#000000" stroke="none">
<path d="M2940 5102 c-230 -102 -371 -195 -525 -347 -304 -298 -443 -628 -459
-1080 -2 -66 -9 -124 -18 -145 -35 -83 -117 -139 -206 -142 -91 -3 -114 12
-298 194 -137 135 -174 167 -183 156 -10 -11 -45 -59 -105 -143 -8 -11 -64
-87 -123 -170 -162 -224 -236 -338 -297 -460 -151 -304 -216 -593 -211 -940 4
-210 5 -229 40 -397 115 -564 477 -1065 980 -1355 230 -133 526 -230 795 -260
128 -14 509 -7 538 11 4 2 31 7 61 10 29 4 57 8 61 11 4 2 20 7 36 9 145 27
459 153 566 227 14 11 29 19 33 19 10 0 158 104 220 154 28 22 92 81 143 131
335 324 546 749 609 1225 10 74 10 362 0 430 -32 229 -150 526 -300 753 -52
80 -140 202 -157 217 -42 39 -339 393 -417 497 -32 43 -60 80 -63 83 -4 3 -26
34 -51 70 -24 36 -47 67 -50 70 -11 9 -186 284 -239 375 -75 131 -213 415
-253 525 -20 52 -46 136 -58 185 -13 50 -25 93 -28 96 -3 4 -22 0 -41 -9z
m-728 -2540 c127 -57 201 -179 207 -342 7 -199 -97 -345 -274 -385 -60 -14
-152 -11 -203 6 -20 7 -39 13 -42 14 -25 2 -105 64 -134 104 -48 65 -66 119
-73 218 -14 201 79 347 257 406 8 2 60 4 115 2 76 -1 111 -7 147 -23z m946 9
l34 -1 -19 -30 c-18 -30 -76 -115 -248 -365 -53 -77 -115 -169 -139 -205 -24
-36 -79 -117 -123 -180 -109 -160 -244 -357 -321 -470 -36 -52 -71 -102 -79
-110 -11 -12 -45 -15 -173 -16 -88 -1 -160 1 -160 4 0 6 77 120 335 497 105
154 240 352 300 440 207 305 287 420 300 430 10 9 87 10 293 6z m78 -667 c125
-59 193 -181 192 -346 0 -99 -19 -166 -66 -237 -116 -174 -410 -196 -561 -42
-112 114 -134 346 -48 494 91 155 307 214 483 131z"/>
<path d="M2011 2358 c-33 -35 -44 -84 -39 -174 5 -102 25 -137 80 -142 31 -3
39 2 59 30 33 45 38 196 9 256 -28 57 -73 70 -109 30z"/>
<path d="M3027 1718 c-57 -44 -64 -248 -9 -310 34 -39 105 -11 121 47 12 46
13 149 2 192 -19 70 -71 103 -114 71z"/>
</g>
</svg>
